<?xml version="1.0" encoding="UTF-8" standalone="no"?>
<!-- Created with Inkscape (http://www.inkscape.org/) -->

<svg
   width="144.495mm"
   height="40.098999mm"
   viewBox="0 0 144.495 40.098999"
   version="1.1"
   id="svg778"
   inkscape:version="1.1.1 (3bf5ae0d25, 2021-09-20)"
   sodipodi:docname="navbar-logo.svg"
   xmlns:inkscape="http://www.inkscape.org/namespaces/inkscape"
   xmlns:sodipodi="http://sodipodi.sourceforge.net/DTD/sodipodi-0.dtd"
   xmlns="http://www.w3.org/2000/svg"
   xmlns:svg="http://www.w3.org/2000/svg">
  <sodipodi:namedview
     id="namedview780"
     pagecolor="#ffffff"
     bordercolor="#666666"
     borderopacity="1.0"
     inkscape:pageshadow="2"
     inkscape:pageopacity="0.0"
     inkscape:pagecheckerboard="0"
     inkscape:document-units="mm"
     showgrid="false"
     inkscape:zoom="0.6405233"
     inkscape:cx="23.418352"
     inkscape:cy="263.06615"
     inkscape:window-width="1920"
     inkscape:window-height="1001"
     inkscape:window-x="-9"
     inkscape:window-y="-9"
     inkscape:window-maximized="1"
     inkscape:current-layer="layer1" />
  <defs
     id="defs775" />
  <g
     inkscape:label="Capa 1"
     inkscape:groupmode="layer"
     id="layer1">
    <path
       class="st0"
       d="M 15.628268,7.9373563 7.2421327,13.056169 v 11.326728 c 0,5.118813 4.1386153,9.257426 9.2574263,9.257426 5.118809,0 9.257422,-4.138613 9.257422,-9.257426 v -6.316832 l -8.495048,4.79208 v 3.702969 l 5.227719,-2.940593 v 0.762376 c 0,3.267327 -2.722771,5.990097 -5.990093,5.990097 -3.267329,0 -5.990101,-2.72277 -5.990101,-5.990097 v -9.584155 l 5.227724,-3.158415 V 8.046268 Z"
       name="Layer %{number}"
       zoom="1"
       data-layer-id="2924095252529"
       style="fill:#de3a3a;fill-opacity:1;stroke-width:1.08909"
       id="path2" />
    <path
       class="st0"
       d="m 17.15302,15.778938 v 3.70297 0.108903 l 11.326732,-6.425742 v 11.217818 c 0,6.752473 -5.445542,12.198021 -12.198017,12.198021 -6.7524743,0 -12.1980174,-5.445548 -12.1980174,-12.198021 V 11.313596 L 15.519361,4.4522089 V 0.85815018 L 15.410439,0.74923123 0.8163834,9.5710109 V 24.382887 c 0,8.495046 6.9702952,15.465344 15.4653426,15.465344 8.495049,0 15.465346,-6.970298 15.465346,-15.465344 V 7.5017039 Z"
       name="Layer %{number}"
       zoom="1"
       data-layer-id="6807445152529"
       style="fill:#de3a3a;fill-opacity:1;stroke-width:1.08909"
       id="path4" />
    <path
       d="m 42.406925,29.189348 v 0 q -3.128526,0 -4.750723,-1.641505 -1.622197,-1.641512 -1.622197,-4.557605 v 0 q 0,-3.089897 1.641512,-4.856935 1.64151,-1.767033 4.885903,-1.767033 v 0 q 1.120088,0 2.027747,0.125524 0.907657,0.125524 1.718757,0.395893 v 0 2.240176 q -0.8111,-0.289676 -1.709102,-0.415202 -0.898001,-0.125525 -1.844284,-0.125525 v 0 q -2.220865,0 -3.147834,1.091118 -0.926968,1.091121 -0.926968,3.311986 v 0 q 0,3.997557 3.765811,3.997557 v 0 q 0.656605,0 1.284239,-0.106216 0.627635,-0.106221 1.110431,-0.280025 v 0 -2.89678 h -2.89678 v -1.660817 h 5.098336 v 6.083236 q -0.637291,0.405551 -1.77669,0.73385 -1.139402,0.328301 -2.858158,0.328303 z m 10.833959,0 v 0 q -2.375362,0 -3.765818,-1.187679 -1.390451,-1.187678 -1.390451,-3.601662 v 0 q 0,-2.182242 1.168366,-3.466479 1.168369,-1.284244 3.485795,-1.284244 v 0 q 2.124305,0 3.254048,1.110433 1.129745,1.110434 1.129745,2.90644 v 0 1.660818 H 50.4986 q 0.212428,1.100779 1.013869,1.506325 0.801446,0.40555 2.269148,0.40555 v 0 q 0.73385,0 1.496669,-0.135175 0.76282,-0.13518 1.303552,-0.347615 v 0 1.853938 q -0.637292,0.289678 -1.487017,0.434518 -0.849721,0.144828 -1.853937,0.144828 z M 50.4986,23.72409 v 0 h 4.345167 v -0.502106 q 0,-0.791788 -0.463482,-1.245619 -0.463487,-0.453827 -1.564262,-0.453827 v 0 q -1.293894,0 -1.80566,0.521423 Q 50.4986,22.565379 50.4986,23.72409 Z m 13.016196,5.27214 h -2.800219 l -3.611321,-9.153826 h 2.722975 l 2.278801,6.527413 2.298112,-6.527413 h 2.703659 z m 8.555161,0.193118 v 0 q -2.568478,0 -3.765815,-1.245615 -1.197339,-1.245615 -1.197339,-3.524416 v 0 q 0,-2.278798 1.206993,-3.524418 1.206991,-1.245615 3.756161,-1.245615 v 0 q 2.568475,0 3.775468,1.245615 1.206993,1.24562 1.206993,3.524418 v 0 q 0,2.278801 -1.197335,3.524416 -1.197335,1.245615 -3.785126,1.245615 z m 0,-2.220861 v 0 q 1.255272,0 1.796004,-0.569702 0.540731,-0.569699 0.540731,-1.979468 v 0 q 0,-1.409766 -0.540731,-1.979467 -0.540732,-0.569699 -1.796004,-0.569699 v 0 q -1.235958,0 -1.776692,0.569699 -0.540732,0.569701 -0.540732,1.979467 v 0 q 0,1.409769 0.540732,1.979468 0.540734,0.569702 1.776692,0.569702 z m 9.018642,2.027743 h -2.607102 v -9.153826 h 2.413983 l 0.115872,0.946281 q 0.617978,-0.386237 1.535293,-0.704882 0.917314,-0.318646 1.80566,-0.434519 v 0 1.969811 q -0.521419,0.07723 -1.139401,0.231742 -0.617977,0.154502 -1.178023,0.347613 -0.560043,0.19312 -0.946282,0.40555 v 0 z m 6.5081,0.193118 v 0 q -0.869033,0 -1.612538,-0.318646 -0.74351,-0.318645 -1.197337,-0.946277 -0.453828,-0.62764 -0.453828,-1.573921 v 0 q 0,-1.351827 0.955937,-2.162928 0.955937,-0.811101 2.829189,-0.811101 v 0 h 2.703661 v -0.251051 q 0,-0.849723 -0.473142,-1.197337 -0.473141,-0.347614 -1.902218,-0.347614 v 0 q -1.564261,0 -3.012652,0.482796 v 0 -1.834629 q 0.637291,-0.251054 1.554605,-0.415204 0.917313,-0.164154 1.998779,-0.164154 v 0 q 2.06637,0 3.196116,0.84007 1.129742,0.840064 1.129742,2.694002 v 0 5.812875 h -2.259488 l -0.135176,-0.830412 q -0.540732,0.482798 -1.332519,0.753163 -0.791786,0.270366 -1.989124,0.270366 z m 0.71454,-1.718757 v 0 q 0.869033,0 1.506325,-0.289677 0.637291,-0.289678 1.004219,-0.73385 v 0 -1.448387 h -2.645725 q -1.525637,0 -1.525637,1.255267 v 0 q 0,1.216647 1.660818,1.216647 z M 101.50125,28.99623 H 98.894145 V 16.559387 h 2.607105 v 5.214204 h 5.42663 v -5.214204 h 2.6071 V 28.99623 h -2.6071 v -5.214205 h -5.42663 z m 14.42595,0.193118 v 0 q -2.56847,0 -3.76582,-1.245615 -1.19729,-1.245615 -1.19729,-3.524416 v 0 q 0,-2.278798 1.20697,-3.524418 1.20698,-1.245615 3.75614,-1.245615 v 0 q 2.56848,0 3.77551,1.245615 1.20697,1.24562 1.20697,3.524418 v 0 q 0,2.278801 -1.19735,3.524416 -1.19734,1.245615 -3.78513,1.245615 z m 0,-2.220861 v 0 q 1.25528,0 1.79602,-0.569702 0.54075,-0.569699 0.54075,-1.979468 v 0 q 0,-1.409766 -0.54075,-1.979467 -0.54074,-0.569699 -1.79602,-0.569699 v 0 q -1.23595,0 -1.77666,0.569699 -0.54074,0.569701 -0.54074,1.979467 v 0 q 0,1.409769 0.54074,1.979468 0.54071,0.569702 1.77666,0.569702 z m 10.04219,2.220861 v 0 q -1.58357,0 -2.3464,-0.83041 -0.76282,-0.830411 -0.76282,-2.259487 v 0 -4.248614 h -1.29389 v -2.008433 h 1.29389 v -1.96981 l 2.6071,-0.772475 v 2.742285 h 2.31746 l -0.15454,2.008433 h -2.16293 v 4.074809 q 0,0.753159 0.34761,1.033182 0.34761,0.280022 1.08148,0.280022 v 0 q 0.54072,0 1.12007,-0.193118 v 0 1.796002 q -0.42484,0.173808 -0.92696,0.260714 -0.5021,0.0869 -1.12008,0.0869 z m 7.76336,0 v 0 q -2.37535,0 -3.76582,-1.187679 -1.39044,-1.187678 -1.39044,-3.601662 v 0 q 0,-2.182242 1.16836,-3.466479 1.16836,-1.284244 3.4858,-1.284244 v 0 q 2.1243,0 3.25403,1.110433 1.12975,1.110434 1.12975,2.90644 v 0 1.660818 h -6.62394 q 0.21241,1.100779 1.01384,1.506325 0.80144,0.40555 2.26916,0.40555 v 0 q 0.73385,0 1.49666,-0.135175 0.76282,-0.13518 1.30357,-0.347615 v 0 1.853938 q -0.63729,0.289678 -1.48703,0.434518 -0.84973,0.144828 -1.85394,0.144828 z m -2.74226,-5.465258 v 0 h 4.34515 v -0.502106 q 0,-0.791788 -0.46348,-1.245619 -0.4635,-0.453827 -1.56426,-0.453827 v 0 q -1.2939,0 -1.80566,0.521423 -0.51175,0.521418 -0.51175,1.680129 z m 10.6022,5.465258 v 0 q -1.33251,0 -1.94085,-0.617979 -0.60832,-0.617977 -0.60832,-1.969811 v 0 -10.621525 h 2.6071 v 10.409095 q 0,0.482795 0.19313,0.666259 0.1931,0.183463 0.56006,0.183463 v 0 q 0.50208,0 0.90762,-0.135175 v 0 1.796001 q -0.73384,0.289677 -1.71874,0.289677 z"
       id="path11"
       style="fill:#000000;stroke-width:0.482795" />
  </g>
</svg>
