<svg width="39" height="48" viewBox="0 0 39 48" fill="none" xmlns="http://www.w3.org/2000/svg">
<path d="M18.7113 9.50131L8.67081 15.6287V29.1872C8.67081 35.3146 13.6259 40.2687 19.7545 40.2687C25.8831 40.2687 30.8381 35.3146 30.8381 29.1872V21.6258L20.6672 27.3621V31.7946L26.9263 28.2746V29.1872C26.9263 33.0983 23.6664 36.3576 19.7545 36.3576C15.8426 36.3576 12.5827 33.0983 12.5827 29.1872V17.7146L18.8417 13.9339V9.63168L18.7113 9.50131Z" fill="#DE3A3A"/>
<path d="M20.5369 18.888V23.3206V23.4509L34.098 15.7591V29.1872C34.098 37.2702 27.5782 43.7887 19.4937 43.7887C11.4091 43.7887 4.88932 37.2702 4.88932 29.1872V13.5428L18.5809 5.32946V1.02724L18.4505 0.896858L0.977432 11.4569V29.1872C0.977432 39.3561 9.32278 47.6998 19.4937 47.6998C29.6646 47.6998 38.0099 39.3561 38.0099 29.1872V8.97982L20.5369 18.888Z" fill="#DE3A3A"/>
</svg>
