<?xml version="1.0" encoding="UTF-8" standalone="no"?>
<!-- Created with Inkscape (http://www.inkscape.org/) -->

<svg
   width="80mm"
   height="23mm"
   viewBox="0 0 80 23"
   version="1.1"
   id="svg778"
   inkscape:version="1.1.1 (3bf5ae0d25, 2021-09-20)"
   sodipodi:docname="Gevora_Hotel_Logo.svg"
   xmlns:inkscape="http://www.inkscape.org/namespaces/inkscape"
   xmlns:sodipodi="http://sodipodi.sourceforge.net/DTD/sodipodi-0.dtd"
   xmlns="http://www.w3.org/2000/svg"
   xmlns:svg="http://www.w3.org/2000/svg">
  <sodipodi:namedview
     id="namedview780"
     pagecolor="#ffffff"
     bordercolor="#666666"
     borderopacity="1.0"
     inkscape:pageshadow="2"
     inkscape:pageopacity="0.0"
     inkscape:pagecheckerboard="0"
     inkscape:document-units="mm"
     showgrid="false"
     inkscape:zoom="2.5620932"
     inkscape:cx="144.80348"
     inkscape:cy="65.376233"
     inkscape:window-width="1920"
     inkscape:window-height="1001"
     inkscape:window-x="-9"
     inkscape:window-y="-9"
     inkscape:window-maximized="1"
     inkscape:current-layer="layer1" />
  <defs
     id="defs775" />
  <g
     inkscape:label="Capa 1"
     inkscape:groupmode="layer"
     id="layer1">
    <path
       class="st0"
       d="M 8.933625,4.6884832 4.3378365,7.4937054 v 6.2072996 c 0,2.805221 2.2680517,5.073273 5.0732735,5.073273 2.805222,0 5.073274,-2.268052 5.073274,-5.073273 v -3.461764 l -4.655475,2.626166 v 2.029309 l 2.864907,-1.61151 v 0.417799 c 0,1.790567 -1.492139,3.282706 -3.282706,3.282706 -1.7905671,0 -3.2827064,-1.492139 -3.2827064,-3.282706 V 8.4486744 L 8.993311,6.7177934 V 4.7481692 Z"
       name="Layer %{number}"
       zoom="1"
       data-layer-id="2924095252529"
       style="fill:#de3a3a;fill-opacity:1;stroke-width:0.596856"
       id="path2" />
    <path
       class="st0"
       d="m 9.769223,8.9858444 v 2.0293096 0.05968 l 6.2073,-3.5214476 V 13.701 c 0,3.700505 -2.984279,6.684784 -6.684784,6.684784 -3.7005055,0 -6.6847841,-2.984279 -6.6847841,-6.684784 V 6.5387364 L 8.87394,2.7785452 V 0.80892123 L 8.81425,0.74923123 0.8163834,5.5837622 V 13.701 c 0,4.655474 3.8198765,8.475351 8.4753506,8.475351 4.655475,0 8.475352,-3.819877 8.475352,-8.475351 V 4.4497362 Z"
       name="Layer %{number}"
       zoom="1"
       data-layer-id="6807445152529"
       style="fill:#de3a3a;fill-opacity:1;stroke-width:0.596856"
       id="path4" />
    <path
       d="m 23.608922,16.335047 v 0 q -1.7145,0 -2.6035,-0.899583 -0.889,-0.899584 -0.889,-2.497667 v 0 q 0,-1.693333 0.899584,-2.661708 0.899583,-0.9683746 2.677583,-0.9683746 v 0 q 0.613833,0 1.11125,0.06879 0.497417,0.06879 0.941917,0.216959 v 0 1.2276656 q -0.4445,-0.15875 -0.936625,-0.227541 -0.492125,-0.06879 -1.010709,-0.06879 v 0 q -1.217083,0 -1.725083,0.597958 -0.508,0.597959 -0.508,1.815042 v 0 q 0,2.19075 2.06375,2.19075 v 0 q 0.359833,0 0.703792,-0.05821 0.343958,-0.05821 0.608541,-0.153459 v 0 -1.5875 h -1.5875 v -0.910166 h 2.794 v 3.33375 q -0.34925,0.22225 -0.973666,0.402166 -0.624417,0.179917 -1.566334,0.179918 z m 5.93725,0 v 0 q -1.30175,0 -2.06375,-0.650875 -0.762,-0.650875 -0.762,-1.973792 v 0 q 0,-1.195916 0.640292,-1.899708 0.640292,-0.703792 1.910292,-0.703792 v 0 q 1.164166,0 1.783291,0.608542 0.619125,0.608542 0.619125,1.592792 v 0 0.910166 h -3.630083 q 0.116417,0.60325 0.555625,0.8255 0.439208,0.22225 1.243542,0.22225 v 0 q 0.402166,0 0.820208,-0.07408 0.418042,-0.07408 0.714375,-0.1905 v 0 1.016 q -0.34925,0.15875 -0.814917,0.238125 -0.465666,0.07937 -1.016,0.07937 z m -1.502833,-2.995083 v 0 h 2.38125 v -0.275167 q 0,-0.433917 -0.254,-0.682625 -0.254,-0.248708 -0.85725,-0.248708 v 0 q -0.709083,0 -0.989542,0.28575 -0.280458,0.28575 -0.280458,0.92075 z m 7.133166,2.88925 h -1.534583 l -1.979083,-5.0165 h 1.49225 l 1.248833,3.577166 1.259417,-3.577166 h 1.481666 z m 4.688417,0.105833 v 0 q -1.407583,0 -2.06375,-0.682625 -0.656167,-0.682625 -0.656167,-1.931458 v 0 q 0,-1.248834 0.661459,-1.931459 0.661458,-0.682625 2.058458,-0.682625 v 0 q 1.407583,0 2.069042,0.682625 0.661458,0.682625 0.661458,1.931459 v 0 q 0,1.248833 -0.656167,1.931458 -0.656166,0.682625 -2.074333,0.682625 z m 0,-1.217083 v 0 q 0.687917,0 0.98425,-0.312209 0.296333,-0.312208 0.296333,-1.084791 v 0 q 0,-0.772584 -0.296333,-1.084792 -0.296333,-0.312208 -0.98425,-0.312208 v 0 q -0.677333,0 -0.973667,0.312208 -0.296333,0.312208 -0.296333,1.084792 v 0 q 0,0.772583 0.296333,1.084791 0.296334,0.312209 0.973667,0.312209 z m 4.942417,1.11125 h -1.42875 v -5.0165 h 1.322916 l 0.0635,0.518583 q 0.338667,-0.211667 0.841375,-0.386292 0.502709,-0.174625 0.989542,-0.238125 v 0 1.0795 q -0.28575,0.04233 -0.624417,0.127 -0.338666,0.08467 -0.645583,0.1905 -0.306917,0.105834 -0.518583,0.22225 v 0 z m 3.566583,0.105833 v 0 q -0.47625,0 -0.883708,-0.174625 -0.407459,-0.174625 -0.656167,-0.518583 -0.248708,-0.343959 -0.248708,-0.862542 v 0 q 0,-0.740833 0.523875,-1.185333 0.523875,-0.4445 1.550458,-0.4445 v 0 h 1.481667 V 13.01188 q 0,-0.465666 -0.259292,-0.656166 -0.259292,-0.1905 -1.042458,-0.1905 v 0 q -0.85725,0 -1.651,0.264583 v 0 -1.005417 q 0.34925,-0.137583 0.851958,-0.227541 0.502708,-0.08996 1.095375,-0.08996 v 0 q 1.132417,0 1.751542,0.460375 0.619125,0.460375 0.619125,1.476375 v 0 3.185584 h -1.23825 l -0.07408,-0.455084 q -0.296333,0.264584 -0.73025,0.41275 -0.433916,0.148167 -1.090083,0.148167 z m 0.391583,-0.941917 v 0 q 0.47625,0 0.8255,-0.15875 0.34925,-0.15875 0.550334,-0.402166 v 0 -0.79375 h -1.449917 q -0.836083,0 -0.836083,0.687916 v 0 q 0,0.66675 0.910166,0.66675 z m 7.228417,0.836084 h -1.42875 V 9.4135474 h 1.42875 v 2.8574996 h 2.973917 V 9.4135474 h 1.428749 v 6.8156666 h -1.428749 v -2.8575 h -2.973917 z m 7.90575,0.105833 v 0 q -1.407584,0 -2.06375,-0.682625 -0.656167,-0.682625 -0.656167,-1.931458 v 0 q 0,-1.248834 0.661458,-1.931459 0.661459,-0.682625 2.058459,-0.682625 v 0 q 1.407583,0 2.069041,0.682625 0.661459,0.682625 0.661459,1.931459 v 0 q 0,1.248833 -0.656167,1.931458 -0.656167,0.682625 -2.074333,0.682625 z m 0,-1.217083 v 0 q 0.687916,0 0.98425,-0.312209 0.296333,-0.312208 0.296333,-1.084791 v 0 q 0,-0.772584 -0.296333,-1.084792 -0.296334,-0.312208 -0.98425,-0.312208 v 0 q -0.677334,0 -0.973667,0.312208 -0.296333,0.312208 -0.296333,1.084792 v 0 q 0,0.772583 0.296333,1.084791 0.296333,0.312209 0.973667,0.312209 z m 5.503333,1.217083 v 0 q -0.867833,0 -1.285875,-0.455083 -0.418042,-0.455084 -0.418042,-1.23825 v 0 -2.328334 h -0.709083 v -1.100666 h 0.709083 v -1.0795 l 1.42875,-0.4233336 v 1.5028336 h 1.27 l -0.08467,1.100666 h -1.185334 v 2.233084 q 0,0.41275 0.1905,0.566208 0.1905,0.153458 0.592667,0.153458 v 0 q 0.296333,0 0.613833,-0.105833 v 0 0.98425 q -0.232833,0.09525 -0.508,0.142875 -0.275166,0.04762 -0.613833,0.04762 z m 4.2545,0 v 0 q -1.30175,0 -2.06375,-0.650875 -0.762,-0.650875 -0.762,-1.973792 v 0 q 0,-1.195916 0.640292,-1.899708 0.640291,-0.703792 1.910291,-0.703792 v 0 q 1.164167,0 1.783292,0.608542 0.619125,0.608542 0.619125,1.592792 v 0 0.910166 h -3.630083 q 0.116416,0.60325 0.555625,0.8255 0.439208,0.22225 1.243541,0.22225 v 0 q 0.402167,0 0.820209,-0.07408 0.418041,-0.07408 0.714375,-0.1905 v 0 1.016 q -0.34925,0.15875 -0.814917,0.238125 -0.465667,0.07937 -1.016,0.07937 z m -1.502833,-2.995083 v 0 h 2.38125 v -0.275167 q 0,-0.433917 -0.254,-0.682625 -0.254,-0.248708 -0.85725,-0.248708 v 0 q -0.709084,0 -0.989542,0.28575 -0.280458,0.28575 -0.280458,0.92075 z m 5.81025,2.995083 v 0 q -0.73025,0 -1.063625,-0.338667 -0.333375,-0.338666 -0.333375,-1.0795 v 0 -5.8208326 h 1.42875 v 5.7044166 q 0,0.264583 0.105833,0.365125 0.105833,0.100541 0.306917,0.100541 v 0 q 0.275166,0 0.497416,-0.07408 v 0 0.98425 q -0.402166,0.15875 -0.941916,0.15875 z"
       id="path11"
       style="fill:#000000;stroke-width:0.264583" />
  </g>
</svg>
