<svg width="116" height="19" viewBox="0 0 116 19" fill="none" xmlns="http://www.w3.org/2000/svg">
<path d="M20 7.24L12.81 6.62L10 0L7.19 6.63L0 7.24L5.46 11.97L3.82 19L10 15.27L16.18 19L14.55 11.97L20 7.24ZM10 13.4L6.24 15.67L7.24 11.39L3.92 8.51L8.3 8.13L10 4.1L11.71 8.14L16.09 8.52L12.77 11.4L13.77 15.68L10 13.4Z" fill="black"/>
<path d="M44 7.24L36.81 6.62L34 0L31.19 6.63L24 7.24L29.46 11.97L27.82 19L34 15.27L40.18 19L38.55 11.97L44 7.24ZM34 13.4L30.24 15.67L31.24 11.39L27.92 8.51L32.3 8.13L34 4.1L35.71 8.14L40.09 8.52L36.77 11.4L37.77 15.68L34 13.4Z" fill="black"/>
<path d="M68 7.24L60.81 6.62L58 0L55.19 6.63L48 7.24L53.46 11.97L51.82 19L58 15.27L64.18 19L62.55 11.97L68 7.24ZM58 13.4L54.24 15.67L55.24 11.39L51.92 8.51L56.3 8.13L58 4.1L59.71 8.14L64.09 8.52L60.77 11.4L61.77 15.68L58 13.4Z" fill="black"/>
<path d="M92 7.24L84.81 6.62L82 0L79.19 6.63L72 7.24L77.46 11.97L75.82 19L82 15.27L88.18 19L86.55 11.97L92 7.24ZM82 13.4L78.24 15.67L79.24 11.39L75.92 8.51L80.3 8.13L82 4.1L83.71 8.14L88.09 8.52L84.77 11.4L85.77 15.68L82 13.4Z" fill="black"/>
<path d="M116 7.24L108.81 6.62L106 0L103.19 6.63L96 7.24L101.46 11.97L99.82 19L106 15.27L112.18 19L110.55 11.97L116 7.24ZM106 13.4L102.24 15.67L103.24 11.39L99.92 8.51L104.3 8.13L106 4.1L107.71 8.14L112.09 8.52L108.77 11.4L109.77 15.68L106 13.4Z" fill="black"/>
</svg>